<?xml version="1.0" encoding="iso-8859-1"?>
<!-- Uploaded to: SVG Repo, www.svgrepo.com, Generator: SVG Repo Mixer Tools -->
<svg version="1.2" xmlns:xlink="http://www.w3.org/1999/xlink" viewBox="0 0 392.663 392.663" baseProfile="tiny-ps" xmlns="http://www.w3.org/2000/svg">
  <title>Networking</title>
<rect x="110.739" y="21.721" width="170.925" height="125.349" fill="#FFFFFF" />
<polygon points="312.242,196.331 287.677,168.857 104.727,168.857 80.162,196.331 " fill="#56ACE0" />
<rect x="21.721" y="328.857" width="41.826" height="41.826" fill="#FFC10D" />
<rect x="175.321" y="328.857" width="41.826" height="41.826" fill="#56ACE0" />
<rect x="328.857" y="328.857" width="41.826" height="41.826" fill="#FFC10D" />
<path d="M381.608,307.071h-20.881v-40.598c0-6.012-4.848-10.925-10.925-10.925H207.127v-37.43h129.487  c4.331,0,8.21-2.521,9.956-6.4c1.745-3.943,1.099-8.469-1.745-11.766l-41.309-46.093V10.925C303.515,4.913,298.667,0,292.59,0  H99.814c-6.012,0-10.925,4.848-10.925,10.925v142.933l-41.18,46.222c-2.844,3.232-3.556,7.822-1.875,11.766  c1.745,3.943,5.624,6.4,9.956,6.4h129.487v37.43H42.667c-6.012,0-10.925,4.848-10.925,10.925V307.2H10.925  C4.913,307.2,0,312.048,0,318.125v63.612c0,6.012,4.848,10.925,10.925,10.925h63.612c6.012,0,10.925-4.848,10.925-10.925v-63.612  c0-6.012-4.848-10.925-10.925-10.925H53.657v-29.673h131.749V307.2h-20.881c-6.012,0-10.925,4.848-10.925,10.925v63.612  c0,6.012,4.848,10.925,10.925,10.925h63.612c6.012,0,10.925-4.848,10.925-10.925v-63.612c0-6.012-4.848-10.925-10.925-10.925  h-20.881v-29.673h131.75V307.2h-20.881c-6.012,0-10.925,4.848-10.925,10.925v63.612c0,6.012,4.848,10.925,10.925,10.925h63.612  c6.012,0,10.925-4.848,10.925-10.925v-63.612C392.469,311.984,387.62,307.071,381.608,307.071z M63.547,370.683H21.721v-41.826  h41.826C63.547,328.857,63.547,370.683,63.547,370.683z M110.739,21.721h170.925v125.35H110.739V21.721z M287.677,168.857  l24.566,27.539H80.162l24.566-27.539H287.677z M217.083,370.683h-41.697v-41.826h41.697V370.683z M370.683,370.683h-41.826v-41.826  h41.826V370.683z" fill="#194F82" />
<path d="M132.525,43.507v6.271h36.331c6.012,0,10.925,4.848,10.925,10.925  c0,6.012-4.848,10.925-10.925,10.925h-36.331v21.786h14.545c6.012,0,10.925,4.848,10.925,10.925c0,6.012-4.848,10.925-10.925,10.925  h-14.545v10.02h127.354V43.507H132.525z" fill="#FFC10D" />
</svg>